<svg xmlns="http://www.w3.org/2000/svg" version="1.1" xmlns:xlink="http://www.w3.org/1999/xlink" xmlns:svgjs="http://svgjs.dev/svgjs" width="100%" height="100%" viewBox="0 0 1000 600"><rect width="1000" height="600" x="0" y="0" fill="#006d5b"/><g><circle r="166.66666666666666" cx="257.97289530436194" cy="280.19511274888725" fill="#5cb3ff" transform="matrix(1.369019120365166,0,0,1.3690191203651658,0,-83.59248802645784)"/><path d="M207.18582592863748 280.4466030537494L207.18582592863748 280.4466030537494Q207.18582592863748 308.4458557483589 220.03977427147217 324.4015177130515Q232.9216659802695 340.35717967774406 258.07069534668517 340.35717967774406Q283.21972471310073 340.35717967774406 295.93395622612206 324.45740444497676Q308.6481877391433 308.52968584624693 308.6481877391433 280.4466030537494L308.6481877391433 280.4466030537494Q308.6481877391433 251.74876621007294 295.82218276227127 235.93282107519377Q283.024121151362 220.11687594031457 258.1545254445732 220.11687594031457Q233.31287310374708 220.11687594031457 220.23537783321095 235.93282107519377Q207.18582592863748 251.74876621007294 207.18582592863748 280.4466030537494ZM326.8393189808506 280.4466030537494L326.8393189808506 280.4466030537494Q326.8393189808506 297.0449624355838 322.2566069629704 310.79309848922435Q317.70183831105294 324.5412345428649 309.09528159454624 334.4331860936551Q300.48872487803953 344.2971942784825 287.43917297346604 349.7461506412059Q274.3616777029299 355.19510700392925 258.07069534668517 355.19510700392925L258.07069534668517 355.19510700392925Q236.0513229680901 355.19510700392925 220.37509466302436 345.8340794064301Q204.7268097239213 336.44510844296826 196.90266725436976 319.6790888653578Q189.10646815078093 302.9410126537101 189.10646815078093 280.33482958989873L189.10646815078093 280.33482958989873Q189.10646815078093 245.461508868469 207.26965602652552 225.3422853753365Q225.46078726823285 205.1951185162413 258.1545254445732 205.1951185162413L258.1545254445732 205.1951185162413Q290.3732263995479 205.1951185162413 308.62024437318064 225.48200220514994Q326.8393189808506 245.7688858940585 326.8393189808506 280.4466030537494Z " fill="#c8e5eb" transform="matrix(1.369019120365166,0,0,1.3690191203651658,0,-83.59248802645784)"/><path d="M549.7771167460307 293.03580428632176L597.944104721021 293.03580428632176Q576.581340179812 230.99165659588303 574.3644495198752 223.3045162555827L574.3644495198752 223.3045162555827Q574.3644495198752 223.3045162555827 549.7771167460307 293.03580428632176L549.7771167460307 293.03580428632176ZM639.1437220504956 355.195115127926L621.1206888930874 355.195115127926L603.6158899159243 307.719106059929L543.9037960365879 307.719106059929L525.7655997280142 355.195115127926L507.97289287293705 355.195115127926L565.4393053045453 205.19511073480038L583.3759660985793 205.19511073480038L639.1437220504956 355.195115127926Z " fill="#89cff0" transform="matrix(1.369019120365166,0,0,1.3690191203651658,0,-83.59248802645784)"/></g></svg>